<svg width="60" height="61" viewBox="0 0 60 61" fill="none" xmlns="http://www.w3.org/2000/svg">
<circle cx="30" cy="30.5" r="30" fill="url(#paint0_linear_378_807)" fill-opacity="0.2"/>
<g clip-path="url(#clip0_378_807)">
<path d="M29.5157 14.8763C29.2418 15.9476 28.5874 16.7391 27.8233 17.0316C27.3943 17.1958 27.391 17.8002 27.8195 17.9661C28.5827 18.2616 29.2416 19.0546 29.5178 20.1253C29.6459 20.6222 30.3561 20.6221 30.4845 20.1253C30.7613 19.0548 31.4174 18.2634 32.1808 17.9691C32.6082 17.8043 32.608 17.2007 32.1808 17.0355C31.4175 16.7404 30.7597 15.9478 30.4865 14.8763C30.4311 14.6592 30.2378 14.5056 30.0091 14.5001C29.7803 14.4947 29.5736 14.65 29.5157 14.8763ZM43.0145 17.3763C42.7406 18.4475 42.0862 19.2391 41.3221 19.5316C40.8931 19.6958 40.8897 20.3002 41.3184 20.4661C42.0815 20.7616 42.7404 21.5545 43.0166 22.6253C43.1447 23.1222 43.8549 23.1221 43.9833 22.6253C44.2601 21.5548 44.9162 20.7634 45.6796 20.4691C46.107 20.3043 46.1069 19.7007 45.6796 19.5355C44.9164 19.2404 44.2586 18.4478 43.9854 17.3763C43.93 17.1592 43.7367 17.0056 43.5079 17.0001C43.2791 16.9946 43.0723 17.15 43.0145 17.3763ZM30.0001 21.5003C29.7501 21.5003 29.5001 21.667 29.5001 22.0003V23.5032C29.5001 24.185 30.5001 24.185 30.5001 23.5032V22.0003C30.5001 21.667 30.25 21.5003 30.0001 21.5003ZM16.0159 22.3763C15.742 23.4475 15.0876 24.2391 14.3235 24.5315C13.8945 24.6957 13.8912 25.3002 14.3198 25.4661C15.0829 25.7615 15.7418 26.5545 16.018 27.6253C16.1461 28.1222 16.8563 28.1221 16.9847 27.6253C17.2615 26.5548 17.9177 25.7634 18.681 25.469C19.1084 25.3042 19.1083 24.7006 18.681 24.5354C17.9177 24.2403 17.2599 23.4478 16.9867 22.3763C16.9314 22.1592 16.738 22.0056 16.5093 22.0001C16.2805 21.9946 16.0738 22.15 16.0159 22.3763ZM35.2089 23.4622L34.1709 24.5003C33.6722 24.9991 34.3758 25.7066 34.875 25.2083L35.9179 24.1673C36.4051 23.681 35.6731 22.9981 35.2089 23.4622ZM24.0714 24.1673L25.13 25.2298C25.6119 25.7134 26.3217 25.0046 25.839 24.5218L24.7794 23.4622C24.3131 22.9959 23.5898 23.6839 24.0714 24.1673ZM22.3351 26.8401L25.6945 31.7678L29.0538 26.8401H22.3351ZM30.9463 26.8401L34.3076 31.7688L37.6679 26.8401H30.9463ZM21.3889 27.2278L18.2317 31.8626H24.5568L21.3889 27.2278ZM38.6122 27.2278L35.456 31.8626H41.7684L38.6122 27.2278ZM30.001 27.2288L26.8448 31.8626H33.1572L30.001 27.2288ZM18.3254 32.8625L28.8448 46.0832L25.1124 32.8625H18.3254ZM26.1515 32.8625L30.001 46.5002L33.8506 32.8625H26.1515ZM34.8906 32.8625L31.1592 46.0832L41.6776 32.8625H34.8906ZM43.0145 35.9104C42.7406 36.9816 42.0862 37.7732 41.3221 38.0656C40.8931 38.2298 40.8897 38.8343 41.3184 39.0002C42.0815 39.2956 42.7404 40.0886 43.0166 41.1594C43.1447 41.6562 43.8549 41.6562 43.9833 41.1594C44.2601 40.0888 44.9162 39.2974 45.6796 39.0031C46.107 38.8383 46.1069 38.2347 45.6796 38.0695C44.9163 37.7744 44.2585 36.9819 43.9853 35.9104C43.93 35.6933 43.7366 35.5397 43.5079 35.5342C43.2791 35.5287 43.0723 35.684 43.0145 35.9104ZM16.0159 38.9074C15.742 39.9787 15.0876 40.7702 14.3235 41.0627C13.8945 41.2269 13.8911 41.8313 14.3198 41.9972C15.0829 42.2927 15.7418 43.0857 16.018 44.1564C16.1461 44.6533 16.8563 44.6532 16.9847 44.1564C17.2615 43.0859 17.9177 42.2945 18.681 42.0002C19.1084 41.8354 19.1083 41.2318 18.681 41.0666C17.9177 40.7715 17.2599 39.9789 16.9867 38.9074C16.9314 38.6903 16.738 38.5367 16.5093 38.5313C16.2805 38.5258 16.0738 38.6811 16.0159 38.9074Z" fill="url(#paint1_linear_378_807)"/>
</g>
<defs>
<linearGradient id="paint0_linear_378_807" x1="-7.04391" y1="11.7127" x2="76.1022" y2="26.6689" gradientUnits="userSpaceOnUse">
<stop offset="2.93028e-07" stop-color="#00F4FF"/>
<stop offset="0.5" stop-color="#008AF2"/>
<stop offset="1" stop-color="#0020E4"/>
</linearGradient>
<linearGradient id="paint1_linear_378_807" x1="10.2432" y1="20.4801" x2="54.588" y2="28.4568" gradientUnits="userSpaceOnUse">
<stop offset="2.93028e-07" stop-color="#00F4FF"/>
<stop offset="0.5" stop-color="#008AF2"/>
<stop offset="1" stop-color="#0020E4"/>
</linearGradient>
<clipPath id="clip0_378_807">
<rect width="32" height="32" fill="white" transform="translate(14 14.5)"/>
</clipPath>
</defs>
</svg>
