<svg width="60" height="61" viewBox="0 0 60 61" fill="none" xmlns="http://www.w3.org/2000/svg">
<circle cx="30" cy="30.5" r="30" fill="url(#paint0_linear_378_831)" fill-opacity="0.2"/>
<path d="M40 18.5H37V17.5C37 17.2348 36.8946 16.9804 36.7071 16.7929C36.5196 16.6054 36.2652 16.5 36 16.5C35.7348 16.5 35.4804 16.6054 35.2929 16.7929C35.1054 16.9804 35 17.2348 35 17.5V18.5H25V17.5C25 17.2348 24.8946 16.9804 24.7071 16.7929C24.5196 16.6054 24.2652 16.5 24 16.5C23.7348 16.5 23.4804 16.6054 23.2929 16.7929C23.1054 16.9804 23 17.2348 23 17.5V18.5H20C19.4696 18.5 18.9609 18.7107 18.5858 19.0858C18.2107 19.4609 18 19.9696 18 20.5V40.5C18 41.0304 18.2107 41.5391 18.5858 41.9142C18.9609 42.2893 19.4696 42.5 20 42.5H40C40.5304 42.5 41.0391 42.2893 41.4142 41.9142C41.7893 41.5391 42 41.0304 42 40.5V20.5C42 19.9696 41.7893 19.4609 41.4142 19.0858C41.0391 18.7107 40.5304 18.5 40 18.5ZM35.1875 31.225L29.35 36.725C29.2592 36.814 29.1518 36.8841 29.0338 36.9313C28.9158 36.9785 28.7896 37.0018 28.6625 37C28.4063 37.001 28.1598 36.9024 27.975 36.725L24.8125 33.725C24.7109 33.6364 24.6283 33.5281 24.5696 33.4067C24.5109 33.2854 24.4774 33.1534 24.471 33.0187C24.4647 32.8841 24.4856 32.7495 24.5325 32.6231C24.5795 32.4968 24.6515 32.3812 24.7443 32.2834C24.8371 32.1856 24.9486 32.1075 25.0723 32.0539C25.196 32.0003 25.3293 31.9723 25.4641 31.9715C25.5989 31.9707 25.7325 31.9972 25.8568 32.0493C25.9811 32.1015 26.0936 32.1783 26.1875 32.275L28.6625 34.625L33.8125 29.775C33.9069 29.6833 34.0188 29.6114 34.1414 29.5635C34.2641 29.5157 34.395 29.4928 34.5266 29.4963C34.6583 29.4998 34.7878 29.5296 34.9078 29.5839C35.0277 29.6382 35.1356 29.7159 35.225 29.8125C35.4071 30.0049 35.5055 30.2617 35.4984 30.5265C35.4914 30.7913 35.3796 31.0425 35.1875 31.225ZM40 24.5H20V20.5H23V21.5C23 21.7652 23.1054 22.0196 23.2929 22.2071C23.4804 22.3946 23.7348 22.5 24 22.5C24.2652 22.5 24.5196 22.3946 24.7071 22.2071C24.8946 22.0196 25 21.7652 25 21.5V20.5H35V21.5C35 21.7652 35.1054 22.0196 35.2929 22.2071C35.4804 22.3946 35.7348 22.5 36 22.5C36.2652 22.5 36.5196 22.3946 36.7071 22.2071C36.8946 22.0196 37 21.7652 37 21.5V20.5H40V24.5Z" fill="url(#paint1_linear_378_831)"/>
<defs>
<linearGradient id="paint0_linear_378_831" x1="-7.04391" y1="11.7127" x2="76.1022" y2="26.6689" gradientUnits="userSpaceOnUse">
<stop offset="2.93028e-07" stop-color="#00F4FF"/>
<stop offset="0.5" stop-color="#008AF2"/>
<stop offset="1" stop-color="#0020E4"/>
</linearGradient>
<linearGradient id="paint1_linear_378_831" x1="15.1824" y1="21.3588" x2="48.5958" y2="26.9068" gradientUnits="userSpaceOnUse">
<stop offset="2.93028e-07" stop-color="#00F4FF"/>
<stop offset="0.5" stop-color="#008AF2"/>
<stop offset="1" stop-color="#0020E4"/>
</linearGradient>
</defs>
</svg>
