<svg width="60" height="61" viewBox="0 0 60 61" fill="none" xmlns="http://www.w3.org/2000/svg">
<circle cx="30" cy="30.5" r="30" fill="url(#paint0_linear_378_819)" fill-opacity="0.2"/>
<g clip-path="url(#clip0_378_819)">
<path d="M22.1399 23.1417L19.3675 23.3558C18.5961 23.4155 17.909 23.8198 17.4824 24.4651L14.2851 29.3008C13.9616 29.7902 13.9101 30.4026 14.1475 30.9391C14.3848 31.4756 14.8726 31.8495 15.4523 31.9393L17.9907 32.3324C18.5845 29.1812 20.006 26.0377 22.1399 23.1417Z" fill="url(#paint1_linear_378_819)"/>
<path d="M28.168 42.5093L28.5612 45.0477C28.651 45.6274 29.0248 46.1152 29.5613 46.3525C29.7845 46.4512 30.0207 46.5 30.2558 46.5C30.5859 46.5 30.9138 46.4038 31.1996 46.2148L36.0355 43.0176C36.6808 42.5909 37.0851 41.9038 37.1446 41.1325L37.3588 38.3601C34.4627 40.494 31.3193 41.9155 28.168 42.5093Z" fill="url(#paint2_linear_378_819)"/>
<path d="M27.2126 40.7498C27.3008 40.7498 27.3894 40.7426 27.4778 40.7278C28.7981 40.5071 30.0705 40.1352 31.2844 39.6484L20.8514 29.2154C20.3646 30.4292 19.9928 31.7017 19.772 33.022C19.685 33.5424 19.8596 34.0726 20.2326 34.4457L26.0541 40.2672C26.3638 40.5769 26.7819 40.7498 27.2126 40.7498Z" fill="url(#paint3_linear_378_819)"/>
<path d="M43.448 28.6876C46.0011 23.7517 46.0956 18.5358 45.9622 16.0896C45.9165 15.2514 45.2483 14.5831 44.41 14.5374C44.0117 14.5157 43.5397 14.5 43.0076 14.5C40.2722 14.5 35.9441 14.9143 31.812 17.0516C28.5281 18.7502 24.2221 22.4902 21.6816 27.4053C21.7116 27.4287 21.741 27.4536 21.7686 27.4812L33.0185 38.7311C33.0461 38.7587 33.0709 38.788 33.0944 38.818C38.0095 36.2775 41.7495 31.9714 43.448 28.6876ZM32.6056 21.2649C34.4332 19.4374 37.407 19.4372 39.2346 21.2649C40.12 22.1503 40.6076 23.3274 40.6076 24.5795C40.6076 25.8315 40.12 27.0087 39.2346 27.894C38.3209 28.8077 37.1203 29.2646 35.9202 29.2648C34.7196 29.2648 33.5195 28.808 32.6056 27.894C31.7202 27.0087 31.2326 25.8315 31.2326 24.5795C31.2326 23.3274 31.7202 22.1503 32.6056 21.2649Z" fill="url(#paint4_linear_378_819)"/>
<path d="M33.9321 26.5682C35.0287 27.6647 36.8131 27.6648 37.9096 26.5682C38.4408 26.0369 38.7334 25.3307 38.7334 24.5794C38.7334 23.8282 38.4408 23.1219 37.9096 22.5907C37.3614 22.0424 36.6411 21.7683 35.9209 21.7683C35.2007 21.7683 34.4805 22.0424 33.9322 22.5907C33.401 23.1219 33.1084 23.8282 33.1084 24.5794C33.1084 25.3307 33.401 26.037 33.9321 26.5682Z" fill="url(#paint5_linear_378_819)"/>
<path d="M14.9561 40.8709C15.196 40.8709 15.436 40.7794 15.619 40.5963L18.6798 37.5355C19.0459 37.1693 19.0459 36.5758 18.6798 36.2097C18.3137 35.8435 17.7201 35.8435 17.354 36.2097L14.2931 39.2705C13.927 39.6366 13.927 40.2302 14.2931 40.5963C14.4762 40.7793 14.7161 40.8709 14.9561 40.8709Z" fill="url(#paint6_linear_378_819)"/>
<path d="M21.4851 39.0148C21.119 38.6486 20.5254 38.6486 20.1593 39.0148L14.2746 44.8995C13.9085 45.2656 13.9085 45.8591 14.2746 46.2253C14.4577 46.4083 14.6976 46.4998 14.9375 46.4998C15.1775 46.4998 15.4174 46.4083 15.6004 46.2252L21.485 40.3406C21.8512 39.9745 21.8512 39.3809 21.4851 39.0148Z" fill="url(#paint7_linear_378_819)"/>
<path d="M22.9643 41.8198L19.9035 44.8806C19.5374 45.2467 19.5374 45.8403 19.9035 46.2064C20.0866 46.3894 20.3265 46.481 20.5664 46.481C20.8063 46.481 21.0462 46.3895 21.2292 46.2064L24.2901 43.1456C24.6562 42.7794 24.6562 42.1859 24.2901 41.8198C23.924 41.4536 23.3304 41.4536 22.9643 41.8198Z" fill="url(#paint8_linear_378_819)"/>
</g>
<defs>
<linearGradient id="paint0_linear_378_819" x1="-7.04391" y1="11.7127" x2="76.1022" y2="26.6689" gradientUnits="userSpaceOnUse">
<stop offset="2.93028e-07" stop-color="#00F4FF"/>
<stop offset="0.5" stop-color="#008AF2"/>
<stop offset="1" stop-color="#0020E4"/>
</linearGradient>
<linearGradient id="paint1_linear_378_819" x1="13.0444" y1="24.8592" x2="24.4011" y2="26.6685" gradientUnits="userSpaceOnUse">
<stop offset="2.93028e-07" stop-color="#00F4FF"/>
<stop offset="0.5" stop-color="#008AF2"/>
<stop offset="1" stop-color="#0020E4"/>
</linearGradient>
<linearGradient id="paint2_linear_378_819" x1="27.089" y1="39.8813" x2="39.7165" y2="42.446" gradientUnits="userSpaceOnUse">
<stop offset="2.93028e-07" stop-color="#00F4FF"/>
<stop offset="0.5" stop-color="#008AF2"/>
<stop offset="1" stop-color="#0020E4"/>
</linearGradient>
<linearGradient id="paint3_linear_378_819" x1="18.3959" y1="31.3709" x2="34.3799" y2="34.2461" gradientUnits="userSpaceOnUse">
<stop offset="2.93028e-07" stop-color="#00F4FF"/>
<stop offset="0.5" stop-color="#008AF2"/>
<stop offset="1" stop-color="#0020E4"/>
</linearGradient>
<linearGradient id="paint4_linear_378_819" x1="18.8267" y1="19.0445" x2="52.5258" y2="25.1062" gradientUnits="userSpaceOnUse">
<stop offset="2.93028e-07" stop-color="#00F4FF"/>
<stop offset="0.5" stop-color="#008AF2"/>
<stop offset="1" stop-color="#0020E4"/>
</linearGradient>
<linearGradient id="paint5_linear_378_819" x1="32.448" y1="22.819" x2="40.2427" y2="24.2218" gradientUnits="userSpaceOnUse">
<stop offset="2.93028e-07" stop-color="#00F4FF"/>
<stop offset="0.5" stop-color="#008AF2"/>
<stop offset="1" stop-color="#0020E4"/>
</linearGradient>
<linearGradient id="paint6_linear_378_819" x1="13.4391" y1="36.8575" x2="20.279" y2="38.0878" gradientUnits="userSpaceOnUse">
<stop offset="2.93028e-07" stop-color="#00F4FF"/>
<stop offset="0.5" stop-color="#008AF2"/>
<stop offset="1" stop-color="#0020E4"/>
</linearGradient>
<linearGradient id="paint7_linear_378_819" x1="13.089" y1="40.1903" x2="23.8421" y2="42.1245" gradientUnits="userSpaceOnUse">
<stop offset="2.93028e-07" stop-color="#00F4FF"/>
<stop offset="0.5" stop-color="#008AF2"/>
<stop offset="1" stop-color="#0020E4"/>
</linearGradient>
<linearGradient id="paint8_linear_378_819" x1="19.0495" y1="42.4676" x2="25.8893" y2="43.6979" gradientUnits="userSpaceOnUse">
<stop offset="2.93028e-07" stop-color="#00F4FF"/>
<stop offset="0.5" stop-color="#008AF2"/>
<stop offset="1" stop-color="#0020E4"/>
</linearGradient>
<clipPath id="clip0_378_819">
<rect width="32" height="32" fill="white" transform="translate(14 14.5)"/>
</clipPath>
</defs>
</svg>
