<svg width="131" height="126" viewBox="0 0 131 126" fill="none" xmlns="http://www.w3.org/2000/svg">
<circle cx="65.5317" cy="53" r="50" fill="url(#paint0_linear_224_2663)"/>
<g filter="url(#filter0_d_224_2663)">
<path d="M60.1013 35.8223L64.9479 30.9727C65.2553 30.668 65.7472 30.668 66.0517 30.9727L70.9041 35.8252C71.2086 36.1299 71.2086 36.625 70.9041 36.9297C70.7518 37.082 70.5527 37.1592 70.3507 37.1592H67.5458V42.8809C67.5458 43.3125 67.1974 43.6611 66.7661 43.6611H64.2374C63.806 43.6611 63.4576 43.3125 63.4576 42.8809V37.1592H60.6498C60.2185 37.1592 59.87 36.8105 59.87 36.3789C59.8691 36.1602 59.9579 35.9639 60.1013 35.8223ZM85.4095 39.2109C85.268 39.0674 85.0718 38.9756 84.8532 38.9756C84.4219 38.9756 84.0734 39.3272 84.0734 39.7588V42.5576L83.9934 42.5547C79.4758 42.4746 76.2444 42.416 75.9487 49.0381C75.9233 49.2813 76.018 49.5361 76.22 49.708C76.5489 49.9844 77.0418 49.9434 77.318 49.6143C77.8108 49.0332 78.1729 48.543 78.4774 48.1309C79.3128 46.9961 79.6065 46.5996 81.6258 46.6162C82.3558 46.6221 82.7959 46.6299 83.2361 46.6357C83.4937 46.6387 83.7533 46.6436 84.0744 46.6465V49.4678C84.0744 49.667 84.1515 49.8662 84.3038 50.0186C84.6083 50.3232 85.1031 50.3232 85.4076 50.0186L90.257 45.166C90.5615 44.8584 90.5615 44.3662 90.257 44.0615L85.4095 39.2109ZM40.7445 44.0605C40.44 44.3652 40.44 44.8574 40.7445 45.165L45.5969 50.0176C45.9014 50.3223 46.3962 50.3223 46.7007 50.0176C46.8529 49.8652 46.93 49.666 46.93 49.4668V46.6455C47.2511 46.6426 47.5078 46.6377 47.7654 46.6348C48.2085 46.6289 48.6477 46.6211 49.3757 46.6152C51.3979 46.5986 51.6887 46.9941 52.527 48.1299C52.8315 48.542 53.1936 49.0322 53.6865 49.6133C53.9627 49.9424 54.4555 49.9844 54.7825 49.707C54.9874 49.5352 55.0782 49.2803 55.0567 49.0371C54.761 42.416 51.5267 42.4736 47.012 42.5537L46.932 42.5566V39.7578C46.932 39.3262 46.5806 38.9746 46.1493 38.9746C45.9336 38.9746 45.7374 39.0664 45.593 39.21L40.7445 44.0605ZM65.5012 56.6924L79.4992 52.5625L66.1044 47.4883C65.7003 47.3359 65.3021 47.3359 64.8981 47.4883L51.5004 52.5625L65.5012 56.6924ZM80.6703 53.833C80.6342 53.8496 80.5952 53.8633 80.5571 53.875L66.282 58.0879V75.2559L79.4836 71.3613C80.2194 71.1426 80.7064 70.4922 80.7064 69.7227V54.1982C80.7064 54.0703 80.6918 53.9492 80.6703 53.833ZM64.7215 58.0869L50.4463 53.874C50.4073 53.8633 50.3692 53.8486 50.3331 53.832C50.3078 53.9482 50.297 54.0703 50.297 54.1973V69.7217C50.297 70.4912 50.784 71.1416 51.5199 71.3604L64.7215 75.2549V58.0869Z" fill="white"/>
</g>
<defs>
<filter id="filter0_d_224_2663" x="0.516113" y="0.744141" width="129.969" height="124.512" filterUnits="userSpaceOnUse" color-interpolation-filters="sRGB">
<feFlood flood-opacity="0" result="BackgroundImageFix"/>
<feColorMatrix in="SourceAlpha" type="matrix" values="0 0 0 0 0 0 0 0 0 0 0 0 0 0 0 0 0 0 127 0" result="hardAlpha"/>
<feOffset dy="10"/>
<feGaussianBlur stdDeviation="20"/>
<feComposite in2="hardAlpha" operator="out"/>
<feColorMatrix type="matrix" values="0 0 0 0 0 0 0 0 0 0 0 0 0 0 0 0 0 0 0.25 0"/>
<feBlend mode="normal" in2="BackgroundImageFix" result="effect1_dropShadow_224_2663"/>
<feBlend mode="normal" in="SourceGraphic" in2="effect1_dropShadow_224_2663" result="shape"/>
</filter>
<linearGradient id="paint0_linear_224_2663" x1="3.7919" y1="21.6879" x2="142.369" y2="46.6148" gradientUnits="userSpaceOnUse">
<stop offset="2.93028e-07" stop-color="#00F4FF"/>
<stop offset="0.5" stop-color="#008AF2"/>
<stop offset="1" stop-color="#0020E4"/>
</linearGradient>
</defs>
</svg>
