<svg width="27" height="27" viewBox="0 0 27 27" fill="none" xmlns="http://www.w3.org/2000/svg">
<circle cx="13.5" cy="13.5" r="13.5" fill="url(#paint0_linear_224_2106)" fill-opacity="0.2"/>
<g clip-path="url(#clip0_224_2106)">
<path fill-rule="evenodd" clip-rule="evenodd" d="M20.2188 9.75C20.2188 8.9625 19.9063 8.2075 19.3494 7.65063C18.7925 7.09375 18.0375 6.78125 17.25 6.78125H9.75C8.9625 6.78125 8.2075 7.09375 7.65063 7.65063C7.09375 8.2075 6.78125 8.9625 6.78125 9.75V17.25C6.78125 18.0375 7.09375 18.7925 7.65063 19.3494C8.2075 19.9063 8.9625 20.2188 9.75 20.2188H17.25C18.0375 20.2188 18.7925 19.9063 19.3494 19.3494C19.9063 18.7925 20.2188 18.0375 20.2188 17.25V9.75ZM13.805 11.1019L12.305 15.6019C12.2238 15.8475 12.3563 16.1131 12.6019 16.195C12.8475 16.2763 13.1131 16.1438 13.195 15.8981L14.695 11.3981C14.7763 11.1525 14.6438 10.8869 14.3981 10.805C14.1525 10.7238 13.8869 10.8563 13.805 11.1019ZM15.4188 12.3313L16.5869 13.5L15.4188 14.6688C15.2356 14.8513 15.2356 15.1488 15.4188 15.3313C15.6013 15.5144 15.8988 15.5144 16.0813 15.3313L17.5813 13.8313C17.7644 13.6481 17.7644 13.3519 17.5813 13.1688L16.0813 11.6688C15.8988 11.4856 15.6013 11.4856 15.4188 11.6688C15.2356 11.8513 15.2356 12.1488 15.4188 12.3313ZM10.9188 11.6688L9.41875 13.1688C9.23563 13.3519 9.23563 13.6481 9.41875 13.8313L10.9188 15.3313C11.1013 15.5144 11.3988 15.5144 11.5813 15.3313C11.7644 15.1488 11.7644 14.8513 11.5813 14.6688L10.4131 13.5L11.5813 12.3313C11.7644 12.1488 11.7644 11.8513 11.5813 11.6688C11.3988 11.4856 11.1013 11.4856 10.9188 11.6688Z" fill="url(#paint1_linear_224_2106)"/>
</g>
<defs>
<linearGradient id="paint0_linear_224_2106" x1="-3.16976" y1="5.04572" x2="34.246" y2="11.776" gradientUnits="userSpaceOnUse">
<stop offset="2.93028e-07" stop-color="#00F4FF"/>
<stop offset="0.5" stop-color="#008AF2"/>
<stop offset="1" stop-color="#0020E4"/>
</linearGradient>
<linearGradient id="paint1_linear_224_2106" x1="5.20371" y1="9.29243" x2="23.825" y2="12.642" gradientUnits="userSpaceOnUse">
<stop offset="2.93028e-07" stop-color="#00F4FF"/>
<stop offset="0.5" stop-color="#008AF2"/>
<stop offset="1" stop-color="#0020E4"/>
</linearGradient>
<clipPath id="clip0_224_2106">
<rect width="15" height="15" fill="white" transform="translate(6 6)"/>
</clipPath>
</defs>
</svg>
