<svg width="1340" height="680" viewBox="0 0 1340 680" fill="none" xmlns="http://www.w3.org/2000/svg">
<rect width="1340" height="680" fill="url(#paint0_linear_0_1)"/>
<g filter="url(#filter0_f_0_1)">
<circle cx="669.5" cy="212.5" r="212.5" fill="url(#paint1_linear_0_1)"/>
</g>
<g opacity="0.1">
<g opacity="0.7" filter="url(#filter1_f_0_1)">
<path d="M883.944 789.09L808.276 725.292L1343.14 321.425L1418.81 385.222L883.944 789.09Z" fill="url(#paint2_linear_0_1)"/>
<path d="M1033.69 915.346L958.023 851.548L1492.89 447.681L1568.55 511.479L1033.69 915.346Z" fill="url(#paint3_linear_0_1)"/>
<path d="M1183.44 1041.6L1107.79 977.819L1642.63 573.937L1718.3 637.735L1183.44 1041.6Z" fill="url(#paint4_linear_0_1)"/>
</g>
<path d="M883.944 789.09L808.276 725.292L1343.14 321.425L1418.81 385.222L883.944 789.09Z" fill="url(#paint5_linear_0_1)"/>
<path d="M1033.69 915.346L958.023 851.548L1492.89 447.681L1568.55 511.479L1033.69 915.346Z" fill="url(#paint6_linear_0_1)"/>
<path d="M1183.44 1041.6L1107.79 977.819L1642.63 573.937L1718.3 637.735L1183.44 1041.6Z" fill="url(#paint7_linear_0_1)"/>
</g>
<g opacity="0.1">
<g opacity="0.7" filter="url(#filter2_f_0_1)">
<path d="M434.36 789.09L510.028 725.292L-24.8358 321.425L-100.503 385.222L434.36 789.09Z" fill="url(#paint8_linear_0_1)"/>
<path d="M284.613 915.346L360.281 851.548L-174.582 447.681L-250.25 511.479L284.613 915.346Z" fill="url(#paint9_linear_0_1)"/>
<path d="M134.866 1041.6L210.516 977.819L-324.33 573.937L-399.997 637.735L134.866 1041.6Z" fill="url(#paint10_linear_0_1)"/>
</g>
<path d="M434.36 789.09L510.028 725.292L-24.8358 321.425L-100.503 385.222L434.36 789.09Z" fill="url(#paint11_linear_0_1)"/>
<path d="M284.613 915.346L360.281 851.548L-174.582 447.681L-250.25 511.479L284.613 915.346Z" fill="url(#paint12_linear_0_1)"/>
<path d="M134.866 1041.6L210.516 977.819L-324.33 573.937L-399.997 637.735L134.866 1041.6Z" fill="url(#paint13_linear_0_1)"/>
</g>
<defs>
<filter id="filter0_f_0_1" x="-43" y="-500" width="1425" height="1425" filterUnits="userSpaceOnUse" color-interpolation-filters="sRGB">
<feFlood flood-opacity="0" result="BackgroundImageFix"/>
<feBlend mode="normal" in="SourceGraphic" in2="BackgroundImageFix" result="shape"/>
<feGaussianBlur stdDeviation="250" result="effect1_foregroundBlur_0_1"/>
</filter>
<filter id="filter1_f_0_1" x="742.945" y="256.094" width="1040.69" height="850.839" filterUnits="userSpaceOnUse" color-interpolation-filters="sRGB">
<feFlood flood-opacity="0" result="BackgroundImageFix"/>
<feBlend mode="normal" in="SourceGraphic" in2="BackgroundImageFix" result="shape"/>
<feGaussianBlur stdDeviation="32.6653" result="effect1_foregroundBlur_0_1"/>
</filter>
<filter id="filter2_f_0_1" x="-465.328" y="256.094" width="1040.69" height="850.839" filterUnits="userSpaceOnUse" color-interpolation-filters="sRGB">
<feFlood flood-opacity="0" result="BackgroundImageFix"/>
<feBlend mode="normal" in="SourceGraphic" in2="BackgroundImageFix" result="shape"/>
<feGaussianBlur stdDeviation="32.6653" result="effect1_foregroundBlur_0_1"/>
</filter>
<linearGradient id="paint0_linear_0_1" x1="670" y1="0" x2="670" y2="680" gradientUnits="userSpaceOnUse">
<stop stop-color="#161722" stop-opacity="0.8"/>
<stop offset="1" stop-color="#161722"/>
</linearGradient>
<linearGradient id="paint1_linear_0_1" x1="407.106" y1="79.4234" x2="996.057" y2="185.363" gradientUnits="userSpaceOnUse">
<stop offset="2.93028e-07" stop-color="#00F4FF"/>
<stop offset="0.5" stop-color="#008AF2"/>
<stop offset="1" stop-color="#0020E4"/>
</linearGradient>
<linearGradient id="paint2_linear_0_1" x1="1138" y1="351.509" x2="1241.42" y2="1042.86" gradientUnits="userSpaceOnUse">
<stop offset="2.93028e-07" stop-color="#00F4FF"/>
<stop offset="0.5" stop-color="#008AF2"/>
<stop offset="1" stop-color="#0020E4"/>
</linearGradient>
<linearGradient id="paint3_linear_0_1" x1="1305.93" y1="326.389" x2="1409.35" y2="1017.74" gradientUnits="userSpaceOnUse">
<stop offset="2.93028e-07" stop-color="#00F4FF"/>
<stop offset="0.5" stop-color="#008AF2"/>
<stop offset="1" stop-color="#0020E4"/>
</linearGradient>
<linearGradient id="paint4_linear_0_1" x1="1473.86" y1="301.27" x2="1577.27" y2="992.625" gradientUnits="userSpaceOnUse">
<stop offset="2.93028e-07" stop-color="#00F4FF"/>
<stop offset="0.5" stop-color="#008AF2"/>
<stop offset="1" stop-color="#0020E4"/>
</linearGradient>
<linearGradient id="paint5_linear_0_1" x1="1138" y1="351.509" x2="1241.42" y2="1042.86" gradientUnits="userSpaceOnUse">
<stop offset="2.93028e-07" stop-color="#00F4FF"/>
<stop offset="0.5" stop-color="#008AF2"/>
<stop offset="1" stop-color="#0020E4"/>
</linearGradient>
<linearGradient id="paint6_linear_0_1" x1="1305.93" y1="326.389" x2="1409.35" y2="1017.74" gradientUnits="userSpaceOnUse">
<stop offset="2.93028e-07" stop-color="#00F4FF"/>
<stop offset="0.5" stop-color="#008AF2"/>
<stop offset="1" stop-color="#0020E4"/>
</linearGradient>
<linearGradient id="paint7_linear_0_1" x1="1473.86" y1="301.27" x2="1577.27" y2="992.625" gradientUnits="userSpaceOnUse">
<stop offset="2.93028e-07" stop-color="#00F4FF"/>
<stop offset="0.5" stop-color="#008AF2"/>
<stop offset="1" stop-color="#0020E4"/>
</linearGradient>
<linearGradient id="paint8_linear_0_1" x1="180.301" y1="351.509" x2="76.8854" y2="1042.86" gradientUnits="userSpaceOnUse">
<stop offset="2.93028e-07" stop-color="#00F4FF"/>
<stop offset="0.5" stop-color="#008AF2"/>
<stop offset="1" stop-color="#0020E4"/>
</linearGradient>
<linearGradient id="paint9_linear_0_1" x1="12.3735" y1="326.389" x2="-91.0426" y2="1017.74" gradientUnits="userSpaceOnUse">
<stop offset="2.93028e-07" stop-color="#00F4FF"/>
<stop offset="0.5" stop-color="#008AF2"/>
<stop offset="1" stop-color="#0020E4"/>
</linearGradient>
<linearGradient id="paint10_linear_0_1" x1="-155.555" y1="301.27" x2="-258.971" y2="992.625" gradientUnits="userSpaceOnUse">
<stop offset="2.93028e-07" stop-color="#00F4FF"/>
<stop offset="0.5" stop-color="#008AF2"/>
<stop offset="1" stop-color="#0020E4"/>
</linearGradient>
<linearGradient id="paint11_linear_0_1" x1="180.301" y1="351.509" x2="76.8854" y2="1042.86" gradientUnits="userSpaceOnUse">
<stop offset="2.93028e-07" stop-color="#00F4FF"/>
<stop offset="0.5" stop-color="#008AF2"/>
<stop offset="1" stop-color="#0020E4"/>
</linearGradient>
<linearGradient id="paint12_linear_0_1" x1="12.3735" y1="326.389" x2="-91.0426" y2="1017.74" gradientUnits="userSpaceOnUse">
<stop offset="2.93028e-07" stop-color="#00F4FF"/>
<stop offset="0.5" stop-color="#008AF2"/>
<stop offset="1" stop-color="#0020E4"/>
</linearGradient>
<linearGradient id="paint13_linear_0_1" x1="-155.555" y1="301.27" x2="-258.971" y2="992.625" gradientUnits="userSpaceOnUse">
<stop offset="2.93028e-07" stop-color="#00F4FF"/>
<stop offset="0.5" stop-color="#008AF2"/>
<stop offset="1" stop-color="#0020E4"/>
</linearGradient>
</defs>
</svg>
