<svg width="27" height="27" viewBox="0 0 27 27" fill="none" xmlns="http://www.w3.org/2000/svg">
<circle cx="13.5" cy="13.5" r="13.5" fill="url(#paint0_linear_224_2098)" fill-opacity="0.2"/>
<g clip-path="url(#clip0_224_2098)">
<path d="M7.6665 14.9583H13.0623V20.5H8.68734C8.12734 20.5 7.6665 20.0391 7.6665 19.4791V14.9583Z" fill="url(#paint1_linear_224_2098)"/>
<path d="M19.3333 14.9583V19.4791C19.3333 20.0391 18.8725 20.5 18.3125 20.5H13.9375V14.9583H19.3333Z" fill="url(#paint2_linear_224_2098)"/>
<path d="M6.5 11.6041V13.0625C6.5 13.6225 6.96083 14.0833 7.52083 14.0833H7.66667H13.0625V13.2083V10.5833H7.52083C6.96083 10.5833 6.5 11.0441 6.5 11.6041Z" fill="url(#paint3_linear_224_2098)"/>
<path d="M19.4792 10.5833H13.9375V13.2083V14.0833H19.3333H19.4792C20.0392 14.0833 20.5 13.6225 20.5 13.0625V11.6041C20.5 11.0441 20.0392 10.5833 19.4792 10.5833Z" fill="url(#paint4_linear_224_2098)"/>
<path d="M13.4998 11.1923C13.3727 11.1923 13.2513 11.1369 13.1691 11.0407C13.0857 10.9444 13.0489 10.8167 13.067 10.6907C13.2828 9.23234 14.4221 6.47375 17.1918 6.47375C18.7726 6.47434 19.3332 7.32834 19.3332 8.05984C19.3332 9.36009 17.5231 11.1923 13.4998 11.1923ZM17.1918 7.34934C15.1023 7.34934 14.3089 9.33559 14.0458 10.3045C15.6943 10.2275 16.7338 9.81042 17.3323 9.45517C18.1624 8.96226 18.4582 8.41101 18.4582 8.05926C18.4582 7.53542 17.8043 7.34934 17.1918 7.34934Z" fill="url(#paint5_linear_224_2098)"/>
<path d="M13.5008 11.1923C9.47756 11.1923 7.66748 9.36005 7.66748 8.0598C7.66748 7.3283 8.22865 6.4743 9.80948 6.4743C12.5786 6.4743 13.7178 9.23289 13.9336 10.6912C13.9517 10.8172 13.915 10.945 13.8316 11.0412C13.7493 11.1369 13.628 11.1923 13.5008 11.1923ZM9.80948 7.3493C9.19698 7.3493 8.54248 7.53597 8.54248 8.0598C8.54248 8.80472 9.84506 10.1621 12.9542 10.3051C12.6917 9.33555 11.8984 7.3493 9.80948 7.3493Z" fill="url(#paint6_linear_224_2098)"/>
</g>
<defs>
<linearGradient id="paint0_linear_224_2098" x1="-3.16976" y1="5.04572" x2="34.246" y2="11.776" gradientUnits="userSpaceOnUse">
<stop offset="2.93028e-07" stop-color="#00F4FF"/>
<stop offset="0.5" stop-color="#008AF2"/>
<stop offset="1" stop-color="#0020E4"/>
</linearGradient>
<linearGradient id="paint1_linear_224_2098" x1="7.03304" y1="15.9939" x2="14.5226" y2="17.3057" gradientUnits="userSpaceOnUse">
<stop offset="2.93028e-07" stop-color="#00F4FF"/>
<stop offset="0.5" stop-color="#008AF2"/>
<stop offset="1" stop-color="#0020E4"/>
</linearGradient>
<linearGradient id="paint2_linear_224_2098" x1="13.304" y1="15.9939" x2="20.7936" y2="17.3057" gradientUnits="userSpaceOnUse">
<stop offset="2.93028e-07" stop-color="#00F4FF"/>
<stop offset="0.5" stop-color="#008AF2"/>
<stop offset="1" stop-color="#0020E4"/>
</linearGradient>
<linearGradient id="paint3_linear_224_2098" x1="5.72957" y1="11.2374" x2="14.1591" y2="14.0804" gradientUnits="userSpaceOnUse">
<stop offset="2.93028e-07" stop-color="#00F4FF"/>
<stop offset="0.5" stop-color="#008AF2"/>
<stop offset="1" stop-color="#0020E4"/>
</linearGradient>
<linearGradient id="paint4_linear_224_2098" x1="13.1671" y1="11.2374" x2="21.5966" y2="14.0804" gradientUnits="userSpaceOnUse">
<stop offset="2.93028e-07" stop-color="#00F4FF"/>
<stop offset="0.5" stop-color="#008AF2"/>
<stop offset="1" stop-color="#0020E4"/>
</linearGradient>
<linearGradient id="paint5_linear_224_2098" x1="12.3263" y1="7.35556" x2="20.8123" y2="9.38409" gradientUnits="userSpaceOnUse">
<stop offset="2.93028e-07" stop-color="#00F4FF"/>
<stop offset="0.5" stop-color="#008AF2"/>
<stop offset="1" stop-color="#0020E4"/>
</linearGradient>
<linearGradient id="paint6_linear_224_2098" x1="6.93131" y1="7.356" x2="15.4172" y2="9.38475" gradientUnits="userSpaceOnUse">
<stop offset="2.93028e-07" stop-color="#00F4FF"/>
<stop offset="0.5" stop-color="#008AF2"/>
<stop offset="1" stop-color="#0020E4"/>
</linearGradient>
<clipPath id="clip0_224_2098">
<rect width="14" height="14" fill="white" transform="translate(6.5 6.5)"/>
</clipPath>
</defs>
</svg>
