<svg viewBox="225.8784 36.52727272727273 652.6368 123.83636363636363" xmlns="http://www.w3.org/2000/svg" data-name="Layer 1" id="Layer_1" style="max-height: 500px" width="652.6368" height="123.83636363636363"><defs><style>.cls-1{fill:#204ff5;}</style></defs><polygon points="45.77 152.41 19.73 152.41 58.82 21.68 84.86 21.68 45.77 152.41" class="cls-1"/><polygon points="97.31 152.41 71.27 152.41 110.36 21.68 136.41 21.68 97.31 152.41" class="cls-1"/><polygon points="148.85 152.41 122.81 152.41 161.91 21.68 187.94 21.68 148.85 152.41" class="cls-1"/><path d="M290.32,44.9h5v9.92H268.13v74.37h-9.91V54.82h-27.4V44.9h59.5Z" class="cls-1"/><path d="M342.76,69.69h4.95v9.92h-4.95a15,15,0,0,0-7.44,1.86Q327,86.06,326.89,98.7v30.49H317V69.69h9.92V74.9A25.79,25.79,0,0,1,342.76,69.69Z" class="cls-1"/><path d="M366.31,62.13V52.21h10v9.92h-10Zm0,7.56h9.91v59.5h-9.91V69.69Z" class="cls-1"/><path d="M449.48,129.32h-9.79l-.12-5-.13-29a17.54,17.54,0,0,0-2.35-8.92Q433,79.6,425.81,79.61a12.14,12.14,0,0,0-7.69,2.73q-6,4.71-5.95,13v33.84h-9.92V69.69h9.92V74.4a22.8,22.8,0,0,1,13.64-4.71,21.65,21.65,0,0,1,14.75,5.7q8.79,7.58,8.8,20v28.88Z" class="cls-1"/><path d="M476.63,62.13V52.21h10v9.92h-10Zm0,7.56h9.91v59.5h-9.91V69.69Z" class="cls-1"/><path d="M523.36,111.71q.12,7.32,9,7.56h5v9.92h-5a28.32,28.32,0,0,1-6.57-.74q-12.4-2.85-12.4-16.61V79.61h-8.3V69.69h8.3v-13l.13-4.84h10l-.13,5V69.69h13.89v9.92H523.48Z" class="cls-1"/><path d="M590.3,69.69H601l-2.61,6.7L580,125.84q-5.09,16.86-10.42,23.31-4.71,5.58-13,5.58h-5v-9.92h5a7.87,7.87,0,0,0,6.32-3q3-3.48,7.19-17.48l-18.1-48-2.6-6.7h10.66l1.12,3.23L575.3,110.1l13.88-37.18Z" class="cls-1"/><path d="M658.62,87.05,658.75,50V45h5l31.49-.12a25.74,25.74,0,0,1,16.73,6q8.69,7.07,8.68,17.73a21.79,21.79,0,0,1-5.83,14.87Q707.21,92,695.19,92H668.54v37.19h-9.92V87.05Zm36.57-5a17.21,17.21,0,0,0,8.55-2.23q6.94-4,6.94-11.28A12.68,12.68,0,0,0,708,60.77q-4.59-6-12.77-6H668.54V82.21Z" class="cls-1"/><path d="M747.13,79.24q8.05-9.55,20-9.55a25.51,25.51,0,0,1,17.36,6.82V69.69h9.92v59.5h-9.92v-6.82a25.91,25.91,0,0,1-17.36,6.82A25.14,25.14,0,0,1,749.36,122q-9.55-8.79-9.55-22.56A30.08,30.08,0,0,1,747.13,79.24Zm6.2,32.23q5.2,7.8,13.75,7.8a15.51,15.51,0,0,0,10.42-4,20.11,20.11,0,0,0,6.94-15.87,21.34,21.34,0,0,0-3.6-12q-5.21-7.82-13.76-7.81a15.46,15.46,0,0,0-10.41,4,20.06,20.06,0,0,0-6.94,15.86A21.4,21.4,0,0,0,753.33,111.47Z" class="cls-1"/><path d="M825.84,79.24q8.05-9.55,20-9.55a25.48,25.48,0,0,1,17.35,6.82V39.94h9.92v89.25h-9.92v-6.82a25.9,25.9,0,0,1-17.35,6.82A25.14,25.14,0,0,1,828.07,122q-9.54-8.79-9.54-22.56A30.07,30.07,0,0,1,825.84,79.24Zm6.2,32.23q5.21,7.8,13.76,7.8a15.5,15.5,0,0,0,10.41-4,20.08,20.08,0,0,0,6.94-15.87,21.41,21.41,0,0,0-3.59-12q-5.2-7.82-13.76-7.81a15.47,15.47,0,0,0-10.42,4,20.09,20.09,0,0,0-6.94,15.86A21.4,21.4,0,0,0,832,111.47Z" class="cls-1"/></svg>