<svg width="156" height="28" viewBox="0 0 156 28" fill="none" xmlns="http://www.w3.org/2000/svg">
<path d="M41.9709 10.2922H45.4492V19.7363H47.4777V10.2922H50.9246V8.26373H41.9709V10.2922Z" fill="white"/>
<path d="M62.1564 14.4993C62.8498 14.0984 63.3402 13.5222 63.615 12.7847C63.7575 12.4166 63.8294 12.0358 63.8294 11.6538C63.8294 10.6352 63.4108 9.77661 62.5875 9.10716C61.9105 8.5474 61.1075 8.26373 60.1997 8.26373L56.2196 8.28012H55.2047V9.29375L55.1909 14V19.7363H57.2194V15.0149H59.8644C60.2829 15.3591 60.6397 15.8357 60.9234 16.4295C61.1982 17.0195 61.5096 17.8856 61.8462 18.9976L62.0505 19.7363H64.1899L63.7827 18.4391C63.2393 16.6123 62.7035 15.315 62.1564 14.4993ZM61.1163 12.7519C60.8364 12.9095 60.5426 12.9852 60.2186 12.9852H57.2748L57.2912 13.0015H57.2206V10.2935H60.2035C60.786 10.2935 61.2209 10.4914 61.5336 10.8961C61.7139 11.1344 61.8021 11.3828 61.8021 11.6551C61.8021 12.1354 61.584 12.4846 61.1163 12.7519Z" fill="white"/>
<path d="M70.5352 8.26373H68.5067V19.7363H70.5352V8.26373Z" fill="white"/>
<path d="M82.2625 9.27736L82.2498 15.5016L77.5007 8.69364L77.1969 8.26373H75.6525V19.7363H77.681V12.501L82.4276 19.3064L82.7314 19.7363H84.2758V18.7227L84.2922 9.27862V8.26373H82.2625V9.27736Z" fill="white"/>
<path d="M91.6259 8.26373H89.5974V19.7363H91.6259V8.26373Z" fill="white"/>
<path d="M95.4837 10.2922H98.9621V19.7363H100.992V10.2922H104.439V8.26373H95.4837V10.2922Z" fill="white"/>
<path d="M113.895 8.74407L111.794 12.1001L109.63 8.71885L109.328 8.26373H106.93L107.916 9.83208L110.783 14.3177V19.7363H112.811V14.2837L115.617 9.81191L116.583 8.26373H114.198L113.895 8.74407Z" fill="white"/>
<path d="M127.748 9.1059C127.061 8.5474 126.264 8.26373 125.379 8.26373L121.383 8.28012H120.368V9.29375L120.353 14.0013V19.7376H122.381V15.0162H125.381C126.509 15.0162 127.442 14.6064 128.155 13.8008C128.71 13.1743 128.993 12.4531 128.993 11.6563C128.991 10.6352 128.574 9.77786 127.748 9.1059ZM126.278 12.7519C125.998 12.9095 125.705 12.9852 125.379 12.9852L122.383 12.999V10.2922H125.382C125.953 10.2922 126.384 10.4902 126.697 10.8949C126.877 11.1331 126.965 11.3815 126.965 11.6538C126.963 12.1354 126.745 12.4846 126.278 12.7519Z" fill="white"/>
<path d="M138.353 8.86636L138.077 8.26373H136.765L136.485 8.87392L132.393 18.318L131.785 19.7363H133.985L134.264 19.1262L137.42 11.8366L140.581 19.1337L140.857 19.7363H143.057L142.448 18.3168L138.353 8.86636Z" fill="white"/>
<path d="M154.56 10.0262C153.71 8.98361 152.638 8.39107 151.372 8.26499L151.353 8.26373H146.794V19.7363H151.352L151.368 19.7351C152.658 19.6216 153.748 19.0114 154.614 17.9171C155.482 16.7825 155.864 15.465 155.749 14.0013C155.876 12.491 155.477 11.1546 154.56 10.0262ZM152.94 16.732C152.462 17.3208 151.9 17.6398 151.222 17.7078H148.824V10.2935H151.223C152.031 10.3704 152.661 10.7814 153.151 11.5467C153.602 12.2577 153.789 13.0356 153.722 13.9244L153.721 13.9395V14.0164L153.722 14.0328C153.809 15.0931 153.553 15.9769 152.94 16.732Z" fill="white"/>
<path d="M5.46525 27.718H0L8.20481 0.282043H13.6701L5.46525 27.718Z" fill="url(#paint0_linear_86_263)"/>
<path d="M16.281 27.718H10.8158L19.0206 0.282043H24.4859L16.281 27.718Z" fill="url(#paint1_linear_86_263)"/>
<path d="M27.0968 27.718H21.6328L29.8364 0.282043H35.3016L27.0968 27.718Z" fill="url(#paint2_linear_86_263)"/>
<defs>
<linearGradient id="paint0_linear_86_263" x1="0.615437" y1="6.79872" x2="22.5858" y2="32.2381" gradientUnits="userSpaceOnUse">
<stop offset="2.93028e-07" stop-color="#00F4FF"/>
<stop offset="0.5" stop-color="#008AF2"/>
<stop offset="1" stop-color="#0020E4"/>
</linearGradient>
<linearGradient id="paint1_linear_86_263" x1="6.81071" y1="1.44828" x2="28.7811" y2="26.8877" gradientUnits="userSpaceOnUse">
<stop offset="2.93028e-07" stop-color="#00F4FF"/>
<stop offset="0.5" stop-color="#008AF2"/>
<stop offset="1" stop-color="#0020E4"/>
</linearGradient>
<linearGradient id="paint2_linear_86_263" x1="13.0059" y1="-3.90217" x2="34.9763" y2="21.5372" gradientUnits="userSpaceOnUse">
<stop offset="2.93028e-07" stop-color="#00F4FF"/>
<stop offset="0.5" stop-color="#008AF2"/>
<stop offset="1" stop-color="#0020E4"/>
</linearGradient>
</defs>
</svg>
