<svg width="18" height="18" viewBox="0 0 18 18" fill="none" xmlns="http://www.w3.org/2000/svg">
<path fill-rule="evenodd" clip-rule="evenodd" d="M1.5004 8.48137C1.5004 4.75871 4.51821 1.74091 8.24087 1.74091C11.9635 1.74091 14.9813 4.75871 14.9813 8.48137C14.9813 12.204 11.9635 15.2218 8.24087 15.2218C4.51821 15.2218 1.5004 12.204 1.5004 8.48137ZM8.24087 0.240906C3.68979 0.240906 0.000404368 3.93029 0.000404377 8.48137C0.000404386 13.0325 3.68979 16.7218 8.24087 16.7218C10.1472 16.7218 11.9023 16.0745 13.2985 14.9877L15.8577 17.5402C16.151 17.8327 16.6258 17.8321 16.9183 17.5389C17.2109 17.2456 17.2102 16.7707 16.917 16.4782L14.3945 13.9622C15.6925 12.5059 16.4813 10.5857 16.4813 8.48137C16.4813 3.93029 12.792 0.240906 8.24087 0.240906Z" fill="url(#paint0_linear_378_845)"/>
<defs>
<linearGradient id="paint0_linear_378_845" x1="-2.01185" y1="3.51465" x2="21.7681" y2="7.699" gradientUnits="userSpaceOnUse">
<stop offset="2.93028e-07" stop-color="#00F4FF"/>
<stop offset="0.5" stop-color="#008AF2"/>
<stop offset="1" stop-color="#0020E4"/>
</linearGradient>
</defs>
</svg>
