<svg width="40" height="40" viewBox="0 0 40 40" fill="none" xmlns="http://www.w3.org/2000/svg">
<rect width="40" height="40" rx="10" fill="white" fill-opacity="0.05"/>
<rect x="0.5" y="0.5" width="39" height="39" rx="9.5" stroke="white" stroke-opacity="0.2"/>
<path d="M24.6415 11.4736C24.5136 11.3266 24.3912 11.3115 24.3756 11.31H14.6245C14.609 11.3115 14.4865 11.3268 14.3586 11.4736C14.1778 11.6813 13.979 12.1523 14.0602 13.2166C14.1281 14.108 14.3838 15.2588 14.8202 16.6371C14.8868 16.8471 14.9561 17.0522 15.0264 17.2473C15.7062 19.1373 16.621 20.5704 17.7453 21.507C17.994 21.7156 18.2611 21.9012 18.5433 22.0616L18.5565 22.0691C18.9994 22.3165 19.3417 22.4137 19.4996 22.4488C19.6578 22.4137 20.0005 22.3163 20.4446 22.0681L20.4562 22.0616C20.7383 21.901 21.0054 21.7153 21.2542 21.5068C22.3792 20.571 23.2939 19.1377 23.9731 17.2477C24.0434 17.0527 24.1127 16.8473 24.1793 16.6375C24.6163 15.2593 24.8719 14.1087 24.9391 13.217C25.0212 12.1523 24.8223 11.6813 24.6415 11.4736ZM21.7122 14.7916L20.6219 15.8544C20.6202 15.856 20.619 15.858 20.6183 15.8602C20.6176 15.8624 20.6175 15.8647 20.6179 15.867L20.8751 17.3677C20.8756 17.3703 20.8754 17.3731 20.8744 17.3756C20.8734 17.3781 20.8717 17.3803 20.8695 17.3819C20.8672 17.3835 20.8646 17.3844 20.8619 17.3846C20.8592 17.3847 20.8565 17.3841 20.8541 17.3828L19.5066 16.6742C19.5045 16.6732 19.5022 16.6727 19.4999 16.6727C19.4975 16.6727 19.4952 16.6732 19.4931 16.6742L18.1456 17.3828C18.1432 17.3841 18.1405 17.3847 18.1378 17.3846C18.1351 17.3844 18.1325 17.3835 18.1302 17.3819C18.128 17.3803 18.1263 17.3781 18.1253 17.3756C18.1243 17.3731 18.1241 17.3703 18.1246 17.3677L18.3822 15.867C18.3827 15.8647 18.3825 15.8624 18.3818 15.8602C18.3811 15.858 18.3799 15.856 18.3782 15.8544L17.2879 14.7918C17.286 14.7899 17.2847 14.7875 17.2841 14.7849C17.2834 14.7823 17.2835 14.7796 17.2844 14.7771C17.2852 14.7745 17.2867 14.7723 17.2888 14.7705C17.2908 14.7688 17.2933 14.7676 17.2959 14.7672L18.8027 14.5484C18.8049 14.5481 18.8071 14.5472 18.809 14.5458C18.8108 14.5445 18.8123 14.5427 18.8134 14.5406L19.4873 13.1756C19.4884 13.1732 19.4903 13.1712 19.4925 13.1698C19.4948 13.1684 19.4974 13.1677 19.5001 13.1677C19.5027 13.1677 19.5053 13.1684 19.5076 13.1698C19.5099 13.1712 19.5117 13.1732 19.5129 13.1756L20.1868 14.5406C20.1878 14.5427 20.1893 14.5445 20.1912 14.5458C20.193 14.5472 20.1952 14.5481 20.1975 14.5484L21.7051 14.7672C21.7076 14.7678 21.71 14.769 21.7119 14.7708C21.7139 14.7726 21.7153 14.7748 21.716 14.7774C21.7167 14.7799 21.7168 14.7826 21.7161 14.7851C21.7154 14.7877 21.7141 14.79 21.7122 14.7918V14.7916Z" fill="white"/>
<path d="M15.3027 17.844C13.2588 17.844 11.5962 16.1812 11.5962 14.1377V13.2542C11.5962 13.1094 11.6537 12.9705 11.7561 12.8681C11.8585 12.7657 11.9974 12.7082 12.1422 12.7082H14.3352C14.4726 12.7088 14.6047 12.761 14.7055 12.8543C14.8063 12.9476 14.8685 13.0753 14.8798 13.2122C14.8863 13.2964 14.8724 13.3809 14.8392 13.4586C14.8061 13.5363 14.7547 13.6048 14.6894 13.6584C14.6242 13.712 14.5469 13.7491 14.4643 13.7664C14.3816 13.7838 14.296 13.781 14.2147 13.7582H12.6462V14.1379C12.6462 15.556 13.7634 16.7181 15.1641 16.7906C15.2936 16.7495 15.4341 16.7603 15.5558 16.8207C15.6776 16.881 15.7712 16.9862 15.817 17.1142C15.8465 17.1966 15.8557 17.2849 15.8439 17.3717C15.8321 17.4584 15.7997 17.5411 15.7492 17.6126C15.6988 17.6842 15.6319 17.7426 15.5542 17.7829C15.4765 17.8232 15.3902 17.8442 15.3027 17.8442V17.844Z" fill="white"/>
<path d="M23.6971 17.8439C23.6095 17.844 23.5233 17.823 23.4456 17.7827C23.3678 17.7424 23.301 17.684 23.2505 17.6124C23.2001 17.5409 23.1676 17.4582 23.1559 17.3715C23.1441 17.2847 23.1533 17.1964 23.1828 17.114C23.2287 16.9861 23.3224 16.8811 23.4441 16.8209C23.5659 16.7606 23.7062 16.7499 23.8357 16.791C24.515 16.7547 25.1547 16.4595 25.623 15.966C26.0913 15.4726 26.3528 14.8184 26.3536 14.1381V13.758H24.7851C24.7038 13.7807 24.6182 13.7835 24.5356 13.7661C24.453 13.7487 24.3757 13.7117 24.3105 13.6581C24.2452 13.6045 24.1939 13.536 24.1608 13.4583C24.1276 13.3807 24.1137 13.2962 24.1202 13.212C24.1314 13.0751 24.1936 12.9474 24.2943 12.8541C24.3951 12.7608 24.5272 12.7086 24.6646 12.708H26.8576C27.0024 12.708 27.1413 12.7655 27.2437 12.8679C27.3461 12.9703 27.4036 13.1092 27.4036 13.254V14.1372C27.4036 16.182 25.7408 17.8439 23.6971 17.8439Z" fill="white"/>
<path d="M21.8014 24.7798H17.1982C17.5823 24.5393 17.9092 24.2178 18.1562 23.8378C18.4031 23.4578 18.5641 23.0285 18.6279 22.5799C19.021 22.7689 19.319 22.8426 19.4589 22.8701C19.4691 22.872 19.4794 22.8732 19.4898 22.8739H19.4998C19.5147 22.8739 19.5296 22.8722 19.5442 22.869C19.6857 22.8409 19.9816 22.7657 20.3709 22.5794C20.4348 23.0282 20.5959 23.4577 20.843 23.8377C21.0901 24.2178 21.4172 24.5393 21.8014 24.7798Z" fill="white"/>
<path d="M25.3996 26.2771V27.69H13.6001V26.2771C13.6004 25.9915 13.7141 25.7176 13.9161 25.5157C14.1181 25.3137 14.392 25.2001 14.6776 25.1998H24.3221C24.6077 25.2001 24.8816 25.3137 25.0836 25.5157C25.2856 25.7176 25.3992 25.9915 25.3996 26.2771Z" fill="white"/>
</svg>
