<svg width="12" height="11" viewBox="0 0 12 11" fill="none" xmlns="http://www.w3.org/2000/svg">
<g clip-path="url(#clip0_172_914)">
<path d="M11.4525 3.19878L8.47332 0.105068C8.37613 0.00427686 8.22717 -0.0273619 8.09751 0.0248378C7.96735 0.0775411 7.88208 0.203592 7.88208 0.343827V1.83345H7.76753C5.30357 1.83345 3.29883 3.83819 3.29883 6.30215V6.98964C3.29883 7.14909 3.41112 7.28203 3.56646 7.31828C3.59172 7.32466 3.61689 7.32743 3.64207 7.32743C3.77181 7.32743 3.89602 7.25131 3.95602 7.13172C4.60046 5.84242 5.89614 5.04172 7.33759 5.04172H7.88208V6.53126C7.88208 6.67157 7.96735 6.79763 8.09751 6.84983C8.22633 6.90253 8.37613 6.87047 8.47332 6.7696L11.4525 3.67588C11.5808 3.54253 11.5808 3.33264 11.4525 3.19878Z" fill="white"/>
<path d="M10.1737 11H1.92381C1.16574 11 0.548828 10.3831 0.548828 9.62499V3.20845C0.548828 2.45038 1.16574 1.83347 1.92381 1.83347H3.2988C3.55224 1.83347 3.7571 2.03832 3.7571 2.29177C3.7571 2.54521 3.55224 2.75007 3.2988 2.75007H1.92381C1.67079 2.75007 1.46543 2.95542 1.46543 3.20845V9.62499C1.46543 9.87801 1.67079 10.0834 1.92381 10.0834H10.1737C10.4267 10.0834 10.632 9.87801 10.632 9.62499V5.95842C10.632 5.70497 10.8369 5.50004 11.0903 5.50004C11.3438 5.50004 11.5487 5.70497 11.5487 5.95842V9.62499C11.5487 10.3831 10.9318 11 10.1737 11Z" fill="white"/>
</g>
<defs>
<clipPath id="clip0_172_914">
<rect width="11" height="11" fill="white" transform="translate(0.548828)"/>
</clipPath>
</defs>
</svg>
