<svg width="13" height="14" viewBox="0 0 13 14" fill="none" xmlns="http://www.w3.org/2000/svg">
<g clip-path="url(#clip0_378_1064)">
<path d="M9.9804 4.69566C10.3012 4.41678 10.4836 4.01212 10.4836 3.58646V1.33873H11.3223C11.553 1.33873 11.7417 1.15002 11.7417 0.919367C11.7417 0.688713 11.553 0.5 11.3223 0.5H10.4836H2.51588H1.67718C1.44653 0.5 1.25781 0.688713 1.25781 0.919367C1.25781 1.15002 1.44653 1.33873 1.67718 1.33873H2.51588V3.79197C2.51588 4.21972 2.7004 4.62648 3.02541 4.90536L4.88733 6.51987C5.02782 6.6415 5.10751 6.81342 5.10751 7.00003C5.10751 7.18665 5.02992 7.35857 4.88733 7.4802L3.02541 9.09261C2.7004 9.37358 2.51588 9.78035 2.51588 10.2081V12.6613H1.67718C1.44653 12.6613 1.25781 12.85 1.25781 13.0807C1.25781 13.3114 1.44653 13.5001 1.67718 13.5001H2.51588H10.4836H11.3223C11.553 13.5001 11.7417 13.3114 11.7417 13.0807C11.7417 12.85 11.553 12.6613 11.3223 12.6613H10.4836V10.4136C10.4836 9.98795 10.2991 9.58329 9.9804 9.30441L7.89201 7.4781C7.75153 7.35647 7.67606 7.18665 7.67606 7.00003C7.67606 6.81342 7.75366 6.64359 7.89201 6.52196L9.9804 4.69566ZM7.34054 8.1092L9.42893 9.9355C9.56732 10.0571 9.64488 10.2311 9.64488 10.4136V12.6613H3.35458V10.2081C3.35458 10.0235 3.43427 9.84953 3.57266 9.7279L5.43458 8.11548C5.7575 7.83451 5.94412 7.42984 5.94412 7.0021C5.94412 6.57435 5.75959 6.16759 5.43458 5.88871L3.57266 4.2742C3.43427 4.15257 3.35458 3.97646 3.35458 3.79194V1.3387H9.64491V3.58643C9.64491 3.76886 9.56522 3.94287 9.42683 4.0645L7.33845 5.8908C7.01972 6.16968 6.83523 6.57435 6.83523 7C6.83523 7.42565 7.01976 7.83032 7.34054 8.1092Z" fill="#00F4FF"/>
<path d="M9.22601 3.58657V3.25108C9.22601 3.12107 9.12118 3.01624 8.99326 3.01624H4.00716C3.87925 3.01624 3.77441 3.12107 3.77441 3.24898V3.79204C3.77441 3.91577 3.82893 4.03317 3.92119 4.11286L5.75378 5.70222C5.98024 5.89932 6.16686 6.14464 6.2654 6.42771C6.50444 7.10706 6.29477 7.82836 5.78314 8.27077L3.92122 9.88528C3.82896 9.96707 3.77445 10.0824 3.77445 10.2061V12.0534C3.77445 12.1582 3.85833 12.2421 3.96107 12.2421H9.03946C9.1422 12.2421 9.22608 12.1582 9.22608 12.0555V10.4137C9.22608 10.2899 9.17366 10.1746 9.0814 10.0929L7.02867 8.29592C6.8043 8.09882 6.61982 7.8556 6.51914 7.57462C6.27801 6.89736 6.48558 6.17816 6.99302 5.73156L9.0814 3.90526C9.1736 3.8256 9.22601 3.70816 9.22601 3.58657Z" fill="#00F4FF"/>
</g>
<defs>
<clipPath id="clip0_378_1064">
<rect width="13" height="13" fill="white" transform="translate(0 0.5)"/>
</clipPath>
</defs>
</svg>
