<svg width="120" height="120" viewBox="0 0 120 120" fill="none" xmlns="http://www.w3.org/2000/svg">
<g clip-path="url(#clip0_445_791)">
<path d="M113.803 47.6563C113.807 47.5853 113.811 47.5145 113.813 47.4435C113.813 26.22 97.924 8.20741 76.0827 2.16454C78.1593 5.02082 79.9947 8.52482 81.5578 12.6299C84.6373 20.7163 86.6283 31.1912 87.1907 42.0003C89.1109 41.2832 91.2819 40.8783 93.55 40.8783C98.6974 40.8783 103.35 42.9551 105.681 46.0662L69.5166 67.5298L79.7204 49.4019C80.1088 48.8334 80.32 48.1229 80.3196 47.4165C80.1466 24.4779 73.0047 0.0699228 60.1092 0.000766388C60.0858 0.000297531 60.0565 -0.000405755 60.0354 0.00029753C47.1175 0.028429 39.965 24.4514 39.7934 47.417C39.7925 48.1172 40.0009 48.8214 40.3828 49.3869L50.62 67.6955L14.2217 46.3721C16.479 43.1199 21.2942 40.8788 26.563 40.8788C28.8309 40.8788 31.0019 41.2834 32.9219 42.0005C33.4843 31.1772 35.4781 20.6917 38.5632 12.6015C40.1249 8.50607 41.9581 5.01004 44.0317 2.15915C35.8689 4.42701 28.3672 8.43621 22.1053 13.98C17.1383 18.3776 13.2299 23.494 10.4889 29.1874C7.65797 35.068 6.21318 41.2876 6.19045 47.6756C6.13067 49.1236 6.9861 50.4833 8.28577 51.0452L43.0405 71.4061H76.7652L111.729 50.6547C112.907 50.1296 113.724 48.9825 113.803 47.6563ZM47.2117 47.1894C49.1835 43.4648 54.3121 40.8785 60.0563 40.8785C65.7979 40.8785 70.9244 43.4624 72.8983 47.1842L60.0108 70.0797L47.2117 47.1894Z" fill="url(#paint0_linear_445_791)"/>
<path d="M63.4789 91.6622V78.4395H56.5234V91.7208L60.0725 89.3603L63.4789 91.6622Z" fill="url(#paint1_linear_445_791)"/>
<path d="M87.2756 78.4395H70.5121V98.1722C70.5121 99.4089 69.9183 100.597 68.8723 101.256C67.6903 102.001 66.1827 101.977 65.0269 101.196L60.0416 97.8272L54.9547 101.21C53.7045 102.042 52.0415 101.998 50.8238 101.039C49.9576 100.357 49.4909 99.2846 49.4909 98.1821V78.4395H32.7274C30.7854 78.4395 29.2109 80.0139 29.2109 81.9559V116.484C29.2109 118.426 30.7854 120.001 32.7274 120.001H87.2756C89.2176 120.001 90.792 118.426 90.792 116.484V81.9559C90.792 80.0139 89.2176 78.4395 87.2756 78.4395Z" fill="url(#paint2_linear_445_791)"/>
</g>
<defs>
<linearGradient id="paint0_linear_445_791" x1="-6.4476" y1="13.3443" x2="136.98" y2="52.2301" gradientUnits="userSpaceOnUse">
<stop offset="2.93028e-07" stop-color="#00F4FF"/>
<stop offset="0.5" stop-color="#008AF2"/>
<stop offset="1" stop-color="#0020E4"/>
</linearGradient>
<linearGradient id="paint1_linear_445_791" x1="55.7069" y1="80.9214" x2="65.5699" y2="81.8506" gradientUnits="userSpaceOnUse">
<stop offset="2.93028e-07" stop-color="#00F4FF"/>
<stop offset="0.5" stop-color="#008AF2"/>
<stop offset="1" stop-color="#0020E4"/>
</linearGradient>
<linearGradient id="paint2_linear_445_791" x1="21.9814" y1="86.2063" x2="104.237" y2="108.129" gradientUnits="userSpaceOnUse">
<stop offset="2.93028e-07" stop-color="#00F4FF"/>
<stop offset="0.5" stop-color="#008AF2"/>
<stop offset="1" stop-color="#0020E4"/>
</linearGradient>
<clipPath id="clip0_445_791">
<rect width="120" height="120" fill="white"/>
</clipPath>
</defs>
</svg>
