<svg width="121" height="121" viewBox="0 0 121 121" fill="none" xmlns="http://www.w3.org/2000/svg">
<path d="M50.3496 41.0159L60.4884 47.3807L70.6284 41.0159L60.4884 34.6523L50.3496 41.0159Z" fill="url(#paint0_linear_445_813)"/>
<path d="M49.291 55.6051L59.287 61.8787V49.4623L49.291 43.1875V55.6051Z" fill="url(#paint1_linear_445_813)"/>
<path d="M71.6847 43.1875L61.6875 49.4623V61.8787L71.6847 55.6051V43.1875Z" fill="url(#paint2_linear_445_813)"/>
<path d="M65.0304 7.71574C63.906 6.08134 62.2152 4.98454 60.2664 4.62454C58.3212 4.26574 56.3448 4.68814 54.714 5.81494L48.834 9.86614H66.5148L65.0304 7.71574Z" fill="url(#paint3_linear_445_813)"/>
<path d="M9.15994 46.2079L24.1671 67.9855V26.8555L11.0583 35.8915C7.69594 38.2207 6.84274 42.8491 9.15994 46.2079Z" fill="url(#paint4_linear_445_813)"/>
<path d="M111.81 75.5868L96.8164 53.832V94.926L109.912 85.9032C111.546 84.7788 112.643 83.0868 113.002 81.138C113.361 79.1904 112.937 77.2188 111.81 75.5868Z" fill="url(#paint5_linear_445_813)"/>
<path d="M91.3789 30.9917C91.3789 36.4205 95.7961 40.8389 101.225 40.8389C106.654 40.8389 111.072 36.4217 111.072 30.9917C111.072 25.5617 106.654 21.1445 101.225 21.1445C95.7961 21.1445 91.3789 25.5629 91.3789 30.9917ZM96.9397 30.5381C97.4089 30.0689 98.1673 30.0689 98.6365 30.5381L99.8161 31.7177L103.812 27.7205C104.281 27.2513 105.04 27.2513 105.509 27.7205C105.978 28.1897 105.978 28.9481 105.509 29.4173L100.665 34.2629C100.439 34.4885 100.135 34.6145 99.8161 34.6145C99.4969 34.6145 99.1921 34.4885 98.9677 34.2629L96.9397 32.2349C96.4717 31.7657 96.4717 31.0061 96.9397 30.5381Z" fill="url(#paint6_linear_445_813)"/>
<path d="M88.9796 30.9928C88.9796 26.7592 91.1408 23.0212 94.4156 20.8204V19.6816C94.4156 15.592 91.0892 12.2656 86.9996 12.2656H33.9824C29.894 12.2656 26.5664 15.592 26.5664 19.6816V102.113C26.5664 106.209 29.8928 109.541 33.9824 109.541H87.0008C91.0892 109.541 94.4168 106.209 94.4168 102.113V41.1652C91.1396 38.9644 88.9796 35.2264 88.9796 30.9928ZM51.9692 98.9008C51.9692 99.4312 51.6212 99.8992 51.1124 100.05C50.9984 100.084 50.8832 100.101 50.7692 100.101C50.372 100.101 49.9916 99.9028 49.7648 99.5584L44.1152 90.9256V98.9008C44.1152 99.5632 43.5788 100.101 42.9152 100.101C42.2516 100.101 41.7152 99.5632 41.7152 98.9008V86.9008C41.7152 86.3704 42.0632 85.9024 42.572 85.7512C43.0844 85.6012 43.6292 85.8016 43.9196 86.2444L49.5692 94.8772V86.902C49.5692 86.2396 50.1056 85.702 50.7692 85.702C51.4328 85.702 51.9692 86.2396 51.9692 86.902V98.9008ZM63.7772 91.7008C64.4408 91.7008 64.9772 92.2384 64.9772 92.9008C64.9772 93.5632 64.4408 94.1008 63.7772 94.1008H58.97V98.9008C58.97 99.5632 58.4336 100.101 57.77 100.101C57.1064 100.101 56.57 99.5632 56.57 98.9008V86.9008C56.57 86.2384 57.1064 85.7008 57.77 85.7008H63.7772C64.4408 85.7008 64.9772 86.2384 64.9772 86.9008C64.9772 87.5632 64.4408 88.1008 63.7772 88.1008H58.97V91.7008H63.7772ZM78.0632 88.1008H74.9984V98.9008C74.9984 99.5632 74.462 100.101 73.7984 100.101C73.1348 100.101 72.5984 99.5632 72.5984 98.9008V88.1008H69.5324C68.8688 88.1008 68.3324 87.5632 68.3324 86.9008C68.3324 86.2384 68.8688 85.7008 69.5324 85.7008H78.062C78.7256 85.7008 79.262 86.2384 79.262 86.9008C79.262 87.5632 78.7268 88.1008 78.0632 88.1008ZM85.0268 74.4364C85.0268 75.0988 84.4904 75.6364 83.8268 75.6364H37.1516C36.488 75.6364 35.9516 75.0988 35.9516 74.4364V22.852C35.9516 22.1896 36.488 21.652 37.1516 21.652H83.8268C84.4904 21.652 85.0268 22.1896 85.0268 22.852V74.4364Z" fill="url(#paint7_linear_445_813)"/>
<path d="M55.9383 114.092C58.2627 117.457 62.8935 118.311 66.2679 115.991L72.1395 111.941H54.4551L55.9383 114.092Z" fill="url(#paint8_linear_445_813)"/>
<defs>
<linearGradient id="paint0_linear_445_813" x1="47.9689" y1="37.031" x2="74.7781" y2="44.714" gradientUnits="userSpaceOnUse">
<stop offset="2.93028e-07" stop-color="#00F4FF"/>
<stop offset="0.5" stop-color="#008AF2"/>
<stop offset="1" stop-color="#0020E4"/>
</linearGradient>
<linearGradient id="paint1_linear_445_813" x1="48.1175" y1="46.6805" x2="62.2867" y2="48.0435" gradientUnits="userSpaceOnUse">
<stop offset="2.93028e-07" stop-color="#00F4FF"/>
<stop offset="0.5" stop-color="#008AF2"/>
<stop offset="1" stop-color="#0020E4"/>
</linearGradient>
<linearGradient id="paint2_linear_445_813" x1="60.5138" y1="46.6805" x2="74.6847" y2="48.0439" gradientUnits="userSpaceOnUse">
<stop offset="2.93028e-07" stop-color="#00F4FF"/>
<stop offset="0.5" stop-color="#008AF2"/>
<stop offset="1" stop-color="#0020E4"/>
</linearGradient>
<linearGradient id="paint3_linear_445_813" x1="46.7583" y1="5.50282" x2="65.4772" y2="16.5971" gradientUnits="userSpaceOnUse">
<stop offset="2.93028e-07" stop-color="#00F4FF"/>
<stop offset="0.5" stop-color="#008AF2"/>
<stop offset="1" stop-color="#0020E4"/>
</linearGradient>
<linearGradient id="paint4_linear_445_813" x1="5.9405" y1="34.5418" x2="29.1579" y2="36.1981" gradientUnits="userSpaceOnUse">
<stop offset="2.93028e-07" stop-color="#00F4FF"/>
<stop offset="0.5" stop-color="#008AF2"/>
<stop offset="1" stop-color="#0020E4"/>
</linearGradient>
<linearGradient id="paint5_linear_445_813" x1="94.9016" y1="61.5116" x2="118.116" y2="63.169" gradientUnits="userSpaceOnUse">
<stop offset="2.93028e-07" stop-color="#00F4FF"/>
<stop offset="0.5" stop-color="#008AF2"/>
<stop offset="1" stop-color="#0020E4"/>
</linearGradient>
<linearGradient id="paint6_linear_445_813" x1="89.067" y1="24.825" x2="116.357" y2="29.7336" gradientUnits="userSpaceOnUse">
<stop offset="2.93028e-07" stop-color="#00F4FF"/>
<stop offset="0.5" stop-color="#008AF2"/>
<stop offset="1" stop-color="#0020E4"/>
</linearGradient>
<linearGradient id="paint7_linear_445_813" x1="18.6009" y1="30.4444" x2="114.164" y2="42.4343" gradientUnits="userSpaceOnUse">
<stop offset="2.93028e-07" stop-color="#00F4FF"/>
<stop offset="0.5" stop-color="#008AF2"/>
<stop offset="1" stop-color="#0020E4"/>
</linearGradient>
<linearGradient id="paint8_linear_445_813" x1="52.379" y1="112.942" x2="71.0809" y2="124.05" gradientUnits="userSpaceOnUse">
<stop offset="2.93028e-07" stop-color="#00F4FF"/>
<stop offset="0.5" stop-color="#008AF2"/>
<stop offset="1" stop-color="#0020E4"/>
</linearGradient>
</defs>
</svg>
