<svg width="108" height="110" viewBox="0 0 108 110" fill="none" xmlns="http://www.w3.org/2000/svg">
<path fill-rule="evenodd" clip-rule="evenodd" d="M40.0661 13.9325C40.0661 21.6157 46.3155 27.8651 53.9987 27.8651C61.6818 27.8651 67.9312 21.6157 67.9312 13.9325C67.9312 6.25175 61.6818 0 53.9987 0C46.3131 0 40.0661 6.24935 40.0661 13.9325ZM67.6766 37.3784C67.6766 29.6952 73.926 23.4459 81.6091 23.4459C89.2923 23.4459 95.5417 29.6952 95.5417 37.3784C95.5417 45.0616 89.2923 51.3109 81.6091 51.3109C73.9236 51.3109 67.6766 45.0616 67.6766 37.3784ZM70.8133 61.0044C70.8133 67.1648 67.4821 72.5568 62.5297 75.4869H64.3526C65.7048 75.4869 67.0209 75.6334 68.2939 75.9096V72.7537C68.2939 71.9563 68.9375 71.3127 69.7349 71.3127C70.5299 71.3127 71.176 71.9587 71.176 72.7537V76.7814C75.6696 78.5491 79.3203 82.01 81.3354 86.374H92.0423V72.7513C92.0423 71.9539 92.6884 71.3103 93.4834 71.3103C94.2808 71.3103 94.9244 71.9563 94.9244 72.7513V86.374H104.344C106.237 86.374 107.779 84.8321 107.779 82.9371V70.5561C107.779 61.8354 100.684 54.7406 91.9631 54.7406H71.2552C70.7124 54.7406 70.172 54.7694 69.634 54.8271C70.3906 56.7437 70.8133 58.8236 70.8133 61.0044ZM53.9987 74.9369C61.6818 74.9369 67.9312 68.6876 67.9312 61.0044C67.9312 53.3212 61.6818 47.0718 53.9987 47.0718C46.3155 47.0718 40.0661 53.3236 40.0661 61.0044C40.0661 68.6852 46.3131 74.9369 53.9987 74.9369ZM64.3526 78.369C73.0733 78.369 80.1681 85.4638 80.1681 94.1845V106.563C80.1681 108.458 78.6262 110 76.7336 110H67.3139V96.3773C67.3139 95.5823 66.6703 94.9362 65.8729 94.9362C65.0779 94.9362 64.4319 95.5823 64.4319 96.3773V110H43.5655V96.3773C43.5655 95.5823 42.9194 94.9362 42.1244 94.9362C41.327 94.9362 40.6834 95.5823 40.6834 96.3773V110H31.2637C29.3711 110 27.8292 108.458 27.8292 106.563V94.1845C27.8292 85.4638 34.924 78.369 43.6447 78.369H64.3526ZM36.7421 54.743C37.2849 54.743 37.8253 54.7718 38.3633 54.8295C37.6043 56.7437 37.184 58.8236 37.184 61.0044C37.184 67.1648 40.5153 72.5568 45.4677 75.4869H43.6447C42.2925 75.4869 40.9764 75.6334 39.7035 75.9096V72.7537C39.7035 71.9563 39.0598 71.3127 38.2624 71.3127C37.4674 71.3127 36.8214 71.9587 36.8214 72.7537V76.7814C32.3277 78.5491 28.677 82.01 26.662 86.374H15.955V72.7513C15.955 71.9539 15.3089 71.3103 14.5139 71.3103C13.7166 71.3103 13.0729 71.9563 13.0729 72.7513V86.374H3.65565C1.76067 86.374 0.21875 84.8321 0.21875 82.9371V70.5561C0.21875 61.8354 7.31351 54.7406 16.0343 54.7406H36.7421V54.743ZM40.3183 37.3784C40.3183 45.0616 34.069 51.3109 26.3858 51.3109C18.7026 51.3109 12.4532 45.0616 12.4532 37.3784C12.4532 29.6952 18.7026 23.4459 26.3858 23.4459C34.0714 23.4459 40.3183 29.6952 40.3183 37.3784ZM64.3526 31.2972H43.6447C43.126 31.2972 42.6072 31.326 42.0908 31.3764C42.8065 33.2426 43.2028 35.2648 43.2028 37.3784C43.2028 43.5389 39.8716 48.9308 34.9192 51.8609H36.7421C37.7484 51.8609 38.7524 51.9426 39.7419 52.1035C42.7177 47.3552 47.9943 44.1873 53.9987 44.1873C60.003 44.1873 65.2797 47.3552 68.2554 52.1035C69.2449 51.9426 70.2489 51.8609 71.2552 51.8609H73.0781C68.1257 48.9332 64.7945 43.5389 64.7945 37.3784C64.7945 35.2648 65.1908 33.2402 65.9065 31.3764C65.3901 31.326 64.8714 31.2972 64.3526 31.2972Z" fill="url(#paint0_linear_445_801)"/>
<defs>
<linearGradient id="paint0_linear_445_801" x1="-12.4086" y1="20.5567" x2="136.85" y2="46.8093" gradientUnits="userSpaceOnUse">
<stop offset="2.93028e-07" stop-color="#00F4FF"/>
<stop offset="0.5" stop-color="#008AF2"/>
<stop offset="1" stop-color="#0020E4"/>
</linearGradient>
</defs>
</svg>
