<svg width="121" height="120" viewBox="0 0 121 120" fill="none" xmlns="http://www.w3.org/2000/svg">
<path d="M59.8996 55.3008C60.2996 55.5008 60.7496 55.5008 61.1496 55.3008L82.0996 43.2008C82.0996 43.2008 81.7496 42.9008 81.5496 42.8008L64.8996 33.2008C62.1996 31.6508 58.8496 31.6508 56.1496 33.2008L39.4996 42.8008C39.4996 42.8008 39.1496 43.1008 38.9496 43.2008L59.8996 55.3008Z" fill="#00F4FF"/>
<path d="M56.8996 62.1008C56.8996 62.1008 56.3996 61.9508 56.1496 61.8008L35.1996 49.7008C35.1996 49.7008 35.0996 50.1508 35.0996 50.3508V69.6008C35.0996 72.7008 36.7496 75.6008 39.4996 77.2008L56.1496 86.8008L56.8996 87.1008V62.1008Z" fill="#008AF2"/>
<path fill-rule="evenodd" clip-rule="evenodd" d="M98.4996 98.0008C108.65 87.8508 114.25 74.3508 114.25 60.0008L114.35 59.9508C114.35 57.9008 112.65 56.2008 110.6 56.2008C108.55 56.2008 106.85 57.9008 106.85 59.9508C106.85 72.3008 102.05 83.9008 93.2996 92.6508C75.2996 110.701 45.9496 110.701 27.8996 92.6508C9.84961 74.6508 9.84961 45.3008 27.8996 27.2508C43.8496 11.2508 68.6496 9.50083 86.6496 21.8508L80.6496 22.5008C78.5496 22.7508 77.0996 24.6008 77.2996 26.6508C77.5496 28.6008 79.1496 30.0008 81.0496 30.0008H81.4496L96.3496 28.4008C98.4496 28.1508 99.8996 26.3008 99.6996 24.2508L98.0996 9.60083C97.8496 7.50083 95.9996 6.05083 93.9496 6.25083C91.8496 6.50083 90.3996 8.35083 90.5996 10.4008L91.1996 16.0008C70.2496 1.40083 41.1496 3.30083 22.4996 22.0008C1.54961 42.9508 1.54961 77.0508 22.4996 98.0008C32.9496 108.451 46.7496 113.701 60.4996 113.701C74.2496 113.701 88.3496 108.151 98.4996 98.0008Z" fill="url(#paint0_linear_445_786)"/>
<path d="M64.8996 61.8008C64.8996 61.8008 64.5496 61.9508 64.3996 62.0008V87.0008C64.3996 87.0008 64.7496 86.9008 64.8996 86.8008L81.5496 77.2008C84.2496 75.6508 85.9496 72.7508 85.9496 69.6008V50.3508C85.9496 50.3508 85.8996 49.9008 85.8496 49.7008L64.8996 61.8008Z" fill="#0020E4"/>
<defs>
<linearGradient id="paint0_linear_445_786" x1="-5.84056" y1="26.316" x2="143.208" y2="53.15" gradientUnits="userSpaceOnUse">
<stop offset="2.93028e-07" stop-color="#00F4FF"/>
<stop offset="0.5" stop-color="#008AF2"/>
<stop offset="1" stop-color="#0020E4"/>
</linearGradient>
</defs>
</svg>
