<svg width="101" height="101" viewBox="0 0 101 101" fill="none" xmlns="http://www.w3.org/2000/svg">
<path d="M50.2995 9.71094C49.8654 9.71018 49.4359 9.79862 49.0375 9.97077L4.70568 28.9816C3.09815 29.6719 2.35462 31.5348 3.04497 33.1423C3.3653 33.8882 3.95977 34.4827 4.70568 34.803L49.0375 53.8076C49.8353 54.1502 50.7389 54.1502 51.5368 53.8076L95.8685 34.803C97.4761 34.1126 98.2196 32.2498 97.5292 30.6423C97.2089 29.8964 96.6144 29.3019 95.8685 28.9816L51.5368 9.97077C51.146 9.8019 50.7252 9.71353 50.2995 9.71094ZM12.0428 44.8435L4.70568 47.9862C3.09815 48.6766 2.35462 50.5394 3.04497 52.1469C3.3653 52.8928 3.95977 53.4873 4.70568 53.8076L49.0375 72.8185C49.8353 73.161 50.7389 73.161 51.5368 72.8185L95.8685 53.8076C97.4761 53.1173 98.2196 51.2545 97.5292 49.6469C97.2089 48.901 96.6144 48.3066 95.8685 47.9862L88.5315 44.8435L54.0423 59.6352C51.6468 60.6646 48.9336 60.6646 46.5381 59.6352L12.0428 44.8435ZM12.0366 63.8482L4.70568 66.997C2.14765 68.0948 2.14765 71.7207 4.70568 72.8185L49.0375 91.8293C49.8361 92.1729 50.7381 92.1729 51.5368 91.8293L95.8685 72.8185C98.4266 71.7207 98.4266 68.0948 95.8685 66.997L88.5376 63.8482L54.0423 78.6399C51.6468 79.6693 48.9336 79.6693 46.5381 78.6399L12.0366 63.8482Z" fill="url(#paint0_linear_445_807)"/>
<defs>
<linearGradient id="paint0_linear_445_807" x1="-8.36574" y1="25.1053" x2="121.935" y2="52.1353" gradientUnits="userSpaceOnUse">
<stop offset="2.93028e-07" stop-color="#00F4FF"/>
<stop offset="0.5" stop-color="#008AF2"/>
<stop offset="1" stop-color="#0020E4"/>
</linearGradient>
</defs>
</svg>
